<svg width="230" height="36" viewBox="0 0 230 36" fill="none" xmlns="http://www.w3.org/2000/svg">
    <path d="M1.866 2H0v32h1.866V2zM59.186 8.964h2.89l5.013 13.361 5.033-13.361h2.89V24.86H73.01V11.635h-.045L68.003 24.86h-1.808l-4.962-13.226h-.046V24.86h-2.001V8.964zM79.601 11.28h-1.892V8.965H79.6v2.317zm-1.892 2.067H79.6V24.86h-1.892V13.347zM81.918 13.347H83.7v1.828h.045c.804-1.423 2.092-2.092 3.74-2.092 3.024 0 3.964 1.738 3.964 4.209v7.569h-1.892v-7.794c0-1.403-.889-2.317-2.337-2.317-2.291 0-3.404 1.538-3.404 3.604v6.5h-1.893V13.34l-.006.007zM95.678 11.28h-1.892V8.965h1.892v2.317zm-1.892 2.067h1.892V24.86h-1.892V13.347zM99.23 21.23c.065 1.694 1.539 2.228 3.097 2.228 1.177 0 2.78-.264 2.78-1.712s-1.873-1.712-3.765-2.137c-1.873-.425-3.765-1.05-3.765-3.25 0-2.317 2.291-3.276 4.299-3.276 2.536 0 4.563.798 4.724 3.61h-1.892c-.135-1.473-1.422-1.937-2.671-1.937-1.133 0-2.446.316-2.446 1.468 0 1.358 2.002 1.583 3.765 2.001 1.893.425 3.765 1.05 3.765 3.276 0 2.742-2.561 3.63-4.897 3.63-2.581 0-4.763-1.043-4.879-3.894h1.892l-.006-.006zM113.635 13.347v1.673h-2.291v7.15c0 .87.244 1.024 1.422 1.024h.869v1.667h-1.448c-1.957 0-2.742-.4-2.742-2.517V15.02h-1.957v-1.673h1.957v-3.45h1.892v3.45h2.298zM115.019 13.347h1.782v2.426h.045c.914-1.847 2.182-2.76 4.229-2.697v2.002c-3.051 0-4.164 1.738-4.164 4.653v5.123h-1.892V13.34v.007zM127.298 26.399c-.868 2.253-1.647 3.076-3.34 3.076-.444 0-.888-.045-1.313-.2v-1.737c.354.11.734.27 1.114.27.778 0 1.203-.38 1.557-1.049l.779-1.956-4.563-11.443h2.137l3.359 9.422h.045l3.231-9.422h2.002l-5.008 13.046v-.007zM143.929 12.98c3.649 0 5.587 2.652 5.587 6.037s-1.938 6.011-5.587 6.011-5.593-2.651-5.593-6.011c0-3.36 1.938-6.037 5.593-6.037zm0 10.381c1.982 0 3.585-1.557 3.585-4.344 0-2.787-1.603-4.364-3.585-4.364s-3.585 1.558-3.585 4.364 1.603 4.344 3.585 4.344zM151.8 14.917h-1.937V13.25h1.937v-1.712c0-1.873 1.114-2.851 3.186-2.851.354 0 .869.064 1.223.174v1.647a3.605 3.605 0 0 0-1.068-.154c-.914 0-1.448.29-1.448 1.294v1.602h2.227v1.667h-2.227v9.84H151.8v-9.84zM171.752 20.8c0 2.162-1.133 4.344-4.698 4.344-2.961 0-4.634-1.648-4.634-4.634v-.978h2.117v.67c0 1.846.49 3.16 2.562 3.16 1.937 0 2.536-1.114 2.536-2.871V8.867h2.117v11.94-.007zM183.839 24.764h-1.783v-1.828h-.045c-.804 1.423-2.091 2.092-3.739 2.092-3.025 0-3.965-1.738-3.965-4.209V13.25h1.893v7.794c0 1.403.888 2.317 2.336 2.317 2.291 0 3.404-1.538 3.404-3.61v-6.5h1.893v11.513h.006zM187.385 21.134c.065 1.693 1.539 2.227 3.096 2.227 1.178 0 2.78-.27 2.78-1.712 0-1.441-1.872-1.718-3.765-2.137-1.872-.424-3.765-1.049-3.765-3.25 0-2.317 2.292-3.276 4.3-3.276 2.535 0 4.563.798 4.717 3.61h-1.892c-.135-1.466-1.422-1.936-2.671-1.936-1.133 0-2.446.309-2.446 1.467 0 1.358 2.002 1.583 3.765 2.002 1.893.424 3.766 1.049 3.766 3.276 0 2.741-2.562 3.63-4.898 3.63-2.581 0-4.763-1.043-4.879-3.894h1.892v-.007zM201.789 13.25v1.674h-2.291v7.15c0 .869.245 1.023 1.422 1.023h.869v1.667h-1.448c-1.956 0-2.742-.399-2.742-2.516v-7.324h-1.956V13.25h1.956V9.8h1.893v3.45h2.297zM205.187 11.178h-1.892V8.86h1.892v2.317zm-1.892 2.072h1.892v11.514h-1.892V13.25zM215.408 16.945c-.29-1.449-1.294-2.292-2.851-2.292-2.742 0-3.585 2.163-3.585 4.5 0 2.117.959 4.208 3.359 4.208 1.828 0 2.916-1.068 3.161-2.806h1.937c-.425 2.806-2.182 4.473-5.078 4.473-3.521 0-5.387-2.452-5.387-5.882 0-3.43 1.783-6.166 5.432-6.166 2.606 0 4.698 1.223 4.968 3.965h-1.956zM228.917 21.109c-.515 2.535-2.336 3.92-4.923 3.92-3.675 0-5.413-2.543-5.523-6.057 0-3.45 2.272-5.992 5.413-5.992 4.074 0 5.323 3.81 5.213 6.59h-8.617c-.065 2.002 1.068 3.785 3.584 3.785 1.558 0 2.652-.76 2.987-2.246h1.873-.007zm-1.821-3.206c-.09-1.802-1.448-3.25-3.321-3.25-1.983 0-3.16 1.493-3.295 3.25h6.616zM26.092 7.194c-.18.347-.341.553-.316.817.026.27.31.457.438.728.122-.316.322-.548.303-.799-.026-.244-.367-.572-.425-.753M30.758 7.194c.18.347.341.553.315.817-.026.27-.309.457-.437.728-.123-.316-.322-.548-.296-.799.025-.244.36-.572.424-.753M23.408 6.994a.316.316 0 1 0-.001-.631.316.316 0 0 0 0 .631zM23.614 7.445a.316.316 0 1 0-.632 0 .316.316 0 0 0 .632 0zM23.768 8.204a.316.316 0 1 0-.631.001.316.316 0 0 0 .631 0zM25.152 5.488a.316.316 0 1 0-.001-.631.316.316 0 0 0 .001.631zM24.367 5.733a.316.316 0 1 0-.001-.632.316.316 0 0 0 0 .632zM23.749 6.274a.316.316 0 1 0-.001-.632.316.316 0 0 0 .001.632zM25.976 5.566a.316.316 0 1 0-.001-.632.316.316 0 0 0 0 .632zM26.755 5.79a.316.316 0 1 0-.001-.63.316.316 0 0 0 0 .63zM27.488 6.138a.316.316 0 1 0 0-.631.316.316 0 0 0 0 .631zM33.113 6.679a.316.316 0 1 0 .632-.001.316.316 0 0 0-.632.001zM33.538 7.13a.316.316 0 1 0 .001.631.316.316 0 0 0 0-.631zM33.384 7.889a.316.316 0 1 0 0 .632.316.316 0 0 0 0-.632zM31.685 5.488a.316.316 0 1 0-.001-.631.316.316 0 0 0 0 .631zM32.47 5.733a.316.316 0 1 0-.001-.632.316.316 0 0 0 0 .632zM33.088 6.274a.316.316 0 1 0-.001-.632.316.316 0 0 0 0 .632zM30.86 5.566a.316.316 0 1 0 0-.632.316.316 0 0 0 0 .632zM30.082 5.79a.316.316 0 1 0-.001-.63.316.316 0 0 0 .001.63zM29.033 5.823a.316.316 0 1 0 .632-.001.316.316 0 0 0-.632.001zM27.88 7.529h.355V6.177a1.33 1.33 0 0 1-.354-.11V7.53zM28.956 6.068c-.11.051-.232.09-.354.109v1.352h.354V6.068zM28.216 4.574v-.798a.973.973 0 0 0-.773.798h.773zM28.628 4.574h.765a.99.99 0 0 0-.765-.798v.798zM27.45 4.96a.987.987 0 0 0 .965.773c.47 0 .869-.335.966-.772h-1.938.007zM28.962 3.648c-.225-.174-.399-.432-.431-.695.257.045.547.231.714.456V2.322c-.173.225-.457.412-.714.457.032-.264.193-.502.412-.779h-1.05c.22.277.38.515.413.779a1.234 1.234 0 0 1-.715-.457v1.087c.168-.225.457-.405.715-.456-.033.27-.206.52-.431.695h1.087zM28.988 26.277a.387.387 0 0 1-.386-.386c0-.213.174-.387.386-.387a.387.387 0 0 1 0 .772zm-1.86-.573a.428.428 0 0 1-.425-.425c0-.232.193-.425.425-.425.232 0 .425.194.425.425a.428.428 0 0 1-.425.425zm-.637-1.892-.103-.078c-.193-.141-.354-.141-.528 0-.084.071-.154.155-.232.239l-.11.122.072.058c.206.16.231.341.174.444a.188.188 0 0 1-.104.084c-.102.025-.244-.013-.392-.097l-.077-.045-.045.077-.039.058c-.02.026-.032.052-.052.084-.083.154-.128.27-.128.36 0 .026 0 .052.013.078.032.109.122.16.2.205l.05.033c.09.057.22.135.316.186a.559.559 0 0 1-.54.026c-.27-.135-.445-.444-.445-.599 0-.238.103-.534.296-.836l.033-.045-.026-.045a2.8 2.8 0 0 1-.142-.27c.103.012.206.032.303.057l.051.013.032-.038c.116-.13.535-.554.927-.554a.67.67 0 0 1 .49.245.74.74 0 0 1 .18.38c-.052-.04-.116-.084-.18-.13m3.636 1.48c-.991-.25-2.176-.675-3.276-1.177v-.013a.847.847 0 0 0-.226-.67.85.85 0 0 0-.624-.308.815.815 0 0 0-.302.058 4.542 4.542 0 0 1-.457-.47 5.311 5.311 0 0 1-.972-1.693 6.076 6.076 0 0 1-.283-1.12c-.052.322-.412.747-1.037.753.013-.064 0-.225-.051-.244-.16.18-.405.373-.972.18.09.438.206.869.367 1.287.335.895.817 1.7 1.429 2.395.2.225.412.437.637.637 0 .045-.006.083-.006.128 0 .232.225.605.547.76.264.129.547.097.81-.09a9.013 9.013 0 0 0 1.758.682c.74.206 1.46.322 2.02.322.483 0 1.12-.232 1.758-.625.25-.16.489-.334.663-.502.025-.025.044-.045.07-.064-.489.071-1.229-.07-1.84-.219M29.844 29.327c-.07-.135-.174-.212-.264-.212-.405 0-.244 1.068-.727 1.068-.213 0-.322-.135-.322-.29 0-.154.103-.192.103-.315 0-.122-.097-.167-.2-.167-.103 0-.2.045-.2.167 0 .123.104.168.104.316s-.116.29-.322.29c-.483 0-.322-1.069-.727-1.069-.09 0-.193.077-.264.212a.934.934 0 0 1-.129-.418c0-.193.155-.463.47-.463.54 0 .418.74.676.74.116 0 .2-.071.2-.18 0-.213-.374-.412-.374-.708s.277-.554.573-.798c.302.244.58.495.58.798 0 .302-.374.502-.374.708 0 .109.084.18.2.18.257 0 .134-.74.675-.74.316 0 .47.27.47.463a.91.91 0 0 1-.129.418m-1.435 1.5a.261.261 0 0 1-.264-.264c0-.148.116-.264.264-.264.148 0 .264.116.264.264a.261.261 0 0 1-.264.264zm1.075-2.594c-.071 0-.135.013-.2.026v-1.184a8.61 8.61 0 0 1-1.737-.258v1.455a.675.675 0 0 0-.888.644c0 .309.18.585.334.765.077-.186.148-.334.251-.334.206 0 .11 1.03.714 1.062a.448.448 0 0 0-.032.16c0 .265.213.47.47.47.258 0 .47-.212.47-.47a.328.328 0 0 0-.032-.16c.605-.026.502-1.062.714-1.062.103 0 .168.141.258.334.154-.173.334-.457.334-.765a.675.675 0 0 0-.675-.676" fill="#fff"/>
    <path d="M43.443 29.662a.125.125 0 0 0-.154-.077c-1.39.405-3.115-.747-4.782-1.86-1.403-.933-2.729-1.822-3.868-1.822-.419 0-.792.09-1.114.264-.399.22-.695.567-.881 1.03a6.325 6.325 0 0 1-.554 1.036c-.193.31-.335.528-.335.798 0 .226.097.425.29.618.161.161.393.322.727.502.071.039.142.071.213.103.276.135.45.226.482.38-.547.244-1.261.444-2.072.586-.914.16-1.912.238-2.967.238-1.056 0-2.053-.084-2.967-.238-.811-.142-1.525-.341-2.072-.586.025-.232.193-.322.495-.47.071-.032.142-.064.212-.103.277-.148.541-.29.715-.45.193-.174.29-.36.29-.586 0-.277-.142-.496-.329-.798-.16-.258-.36-.573-.553-1.036-.193-.464-.49-.805-.888-1.024a2.315 2.315 0 0 0-1.114-.264c-1.139 0-2.465.882-3.868 1.822-1.667 1.113-3.392 2.265-4.782 1.86a.125.125 0 0 0-.154.077c-.02.065.006.135.07.161.425.187.799.476 1.159.76.502.392.972.759 1.493.759.496 0 1.023-.155 1.667-.496.56-.296 1.14-.688 1.7-1.075 1.1-.753 2.233-1.525 3.307-1.608-.11.115-.225.212-.328.302-.315.283-.592.528-.592 1.03 0 .392.135.67.322 1.062.051.11.116.238.18.386.122.264.167.483.245.772.032.129.064.27.109.438.07.257.193.734.985 1.133.914.47 2.497.701 4.692.701 2.194 0 3.777-.238 4.691-.701.792-.4.92-.882.985-1.133.045-.168.077-.31.11-.438.07-.296.122-.508.244-.772.09-.193.174-.354.251-.496.167-.309.296-.553.296-.907 0-.502-.29-.76-.624-1.062-.103-.097-.219-.2-.335-.322 1.081.084 2.214.863 3.315 1.616.56.38 1.145.778 1.699 1.068.643.335 1.178.495 1.673.495.522 0 .991-.366 1.493-.759.36-.277.734-.573 1.153-.76.064-.025.09-.096.07-.16M28.615 18.869v-5.213c.54.025 1.075.154 1.57.405.54.27 1.023.65 1.435 1.14.419.489.747 1.061.972 1.692a6.03 6.03 0 0 1 .354 1.982h-4.338l.007-.006zm-.187-7.395c-1.48 0-2.497.438-3.09.83-.34-.206-.488-.399-.488-.637 0-.843 2.374-.914 3.584-.914 1.204 0 3.585.077 3.585.914 0 .238-.148.438-.495.637-.592-.399-1.616-.83-3.09-.83m-.083 7.395H23.91a6.204 6.204 0 0 1 .354-1.982c.232-.631.553-1.204.972-1.693.418-.49.9-.869 1.435-1.14a3.937 3.937 0 0 1 1.673-.411v5.22l.007.006zm6.738-.335c-.154-.116-.405-.347-.534-.624-.167-.341-.856-1.7-.965-1.88a.796.796 0 0 1-.136-.405c0-.142.071-.257.149-.36.051-.071.206-.213.257-.303.045-.064.084-.122.122-.16a6.863 6.863 0 0 0-.836-1.133 6.557 6.557 0 0 0-1.346-1.165c.264-.174.535-.419.535-.837a.754.754 0 0 0-.277-.592c.277-.888.779-1.963 1.203-2.433l-.894-.38a1.4 1.4 0 0 1 .193 1.01c-.232-.16-.431-.385-.496-.675-.045.27-.193.708-.328.972.258-.123.463-.174.727-.071-.154.206-.534.515-1.126.373-.315-.077-.63-.244-.618-.489.007-.148.116-.322.316-.302.193.019.206.315.148.45.257-.148.52-.894.122-1.004-.316-.084-.599.348-.708.676-.058-.4-.225-.779-.54-.76-.413.026-.277.786-.136.979.026-.264.174-.406.29-.4.11.007.25.084.232.329-.026.245-.367.393-.766.393-.4 0-1.043-.116-1.101-.844.245.045.63.232.792.477a4.757 4.757 0 0 1 0-1.21c-.206.29-.547.437-.78.476.072-.309.336-.644.65-.837h-1.62c.314.193.578.522.65.837a1.226 1.226 0 0 1-.773-.47c.051.457.051.772 0 1.21.16-.238.534-.425.778-.47-.064.728-.727.843-1.1.843-.393 0-.74-.148-.766-.392-.026-.245.122-.322.232-.328.122-.013.264.135.29.399.141-.193.276-.953-.136-.979-.315-.019-.482.36-.54.76-.103-.328-.393-.76-.708-.676-.4.11-.136.862.122 1.004-.064-.135-.052-.431.148-.45.2-.02.309.16.315.302.013.245-.302.412-.617.49-.586.134-.966-.168-1.12-.374.264-.116.476-.058.74.064a4.032 4.032 0 0 1-.328-.972c-.071.296-.27.522-.509.683a1.425 1.425 0 0 1 .193-1.017l-.895.38c.425.47.927 1.55 1.204 2.439a.752.752 0 0 0-.27.579c0 .412.264.663.534.837a6.97 6.97 0 0 0-1.345 1.165 7.508 7.508 0 0 0-1.423 2.374c.123.13.657.708.786.87.225.282.354.56.36.778.013.405.097.566.315.837.065.083.161.399.174.598h4.435v4.827c-.174.013-.36.058-.509.239.515.205.998.392 1.493.546.045-.315.11-.514.27-.707 0 0-.643-.065-.99-.084V19.12h4.337a6.13 6.13 0 0 1-.354 1.911 5.642 5.642 0 0 1-.971 1.693c-.412.49-.902.869-1.436 1.14-.083.044-.083.102-.173.14a1.166 1.166 0 0 0-.213.393 1.63 1.63 0 0 0-.096.438c.206.064.315.097.508.142 1.525.38 1.899.27 1.982.206.341-.264.663-.567.96-.901a7.528 7.528 0 0 0 1.422-2.395 8.304 8.304 0 0 0 .521-2.928v-.431" fill="#fff"/>
    <path d="M31.035 15.773c-.039.039-.058.084-.046.122.013.046.052.084.13.084a.293.293 0 0 0-.104.18.273.273 0 0 0 .2-.045c-.02.078.006.122.045.148.032.02.077.02.116 0 .328.535.553 1.14.65 1.757a.298.298 0 0 0-.161-.045c0 .09.039.155.09.2h-1.081c.006-.071-.026-.129-.071-.142-.045-.013-.097-.006-.148.052a.286.286 0 0 0-.084-.193.286.286 0 0 0-.084.193c-.051-.058-.102-.065-.147-.052-.046.013-.078.077-.071.142h-.927a.272.272 0 0 0 .064-.187.288.288 0 0 0-.186.07v-1.499c.07.013.135-.025.148-.07.013-.046.006-.097-.052-.148a.286.286 0 0 0 .193-.084.275.275 0 0 0-.193-.084c.065-.051.065-.103.052-.148-.013-.045-.078-.084-.148-.07v-1.269a.304.304 0 0 0 .16.065.312.312 0 0 0-.044-.18c.29.09.566.231.836.405.316.212.605.476.856.792m1.236 2.246c.077.051.051.167-.045.16a4.988 4.988 0 0 0-.83-2.2l.012-.013a.285.285 0 0 0 .187-.226.288.288 0 0 0-.277.123 1.97 1.97 0 0 0-.096-.122 4.184 4.184 0 0 0-.94-.882 3.379 3.379 0 0 0-1.042-.476c0-.084.115-.097.16-.026.013-.135-.103-.206-.173-.18-.039.012-.071.045-.078.109a.274.274 0 0 0-.2-.103c0 .09.02.155.065.206-.058 0-.096.026-.116.058-.038.064.013.193.148.206-.064-.052-.038-.161.045-.155v1.7a.278.278 0 0 0-.283.07c.09.09.2.097.284.071v1.84c-.09.007-.116-.109-.046-.154-.141 0-.2.123-.167.187.02.045.064.07.142.064a.292.292 0 0 0-.071.193.292.292 0 0 0 .193-.07c-.006.077.026.115.07.141.065.032.187-.026.187-.167-.051.07-.16.051-.16-.039h1.28a.278.278 0 0 0 .071.277c.09-.09.097-.2.077-.277h1.423c.006.09-.103.116-.155.045 0 .135.129.193.193.161.045-.02.071-.064.065-.141.045.038.11.07.193.07a.266.266 0 0 0-.078-.193c.078 0 .123-.025.142-.07.026-.065-.032-.187-.174-.187" fill="#fff"/>
    <path d="M31.504 17.55a.216.216 0 0 0 .116-.11c-.064.026-.11-.006-.122-.013.045-.026.096 0 .045-.077-.051-.077-.084-.084-.135-.026-.052.058-.4-.013-.393-.27.026.045.071.077.116.096l.039.02c.013 0 .025 0 .045.006.032.013.07.02.096.013h.02c.07-.026.128-.07.135-.142.013-.141-.123-.206-.27-.334-.058-.052-.104-.09-.142-.129-.052-.103-.02-.193-.148-.38a.828.828 0 0 0-.045-.167.474.474 0 0 0 .077.547c.142.161.45.309.438.444 0 .032-.033.058-.078.071h-.045c-.006 0-.019 0-.025-.006-.02-.007-.045-.013-.065-.033a.55.55 0 0 1-.11-.083c-.128-.123-.244-.296-.315-.393-.141-.18-.077-.36-.057-.508.103-.136-.065-.425-.155-.49 0 0 .02-.064 0-.148-.02.013-.064.013-.09.013-.026-.051-.039-.064-.07-.07-.065-.013-.059-.046-.065-.071-.032.032-.052.064-.084.064-.051 0-.07 0-.09.02-.038.025-.051.038-.11.038-.057 0-.057.032-.05.077 0 .026 0 .071.044.084 0 0 .013 0 .02.006l.045.058.032-.058s.103-.025.116.026c.012.039.019.052-.032.052-.052.006-.078.006-.123.013-.032 0-.032.045-.032.07 0 .032.039.052.11.032.07-.012.193-.032.193.033 0 .154-.174.148-.213.328a.423.423 0 0 1-.11-.103.818.818 0 0 0-.128-.161.768.768 0 0 0-.135-.11c-.065-.038-.065-.064-.065-.128 0-.058.026-.103.026-.155 0 0-.006-.032-.013-.045-.013-.032-.058-.058-.083-.051.012.013.032.026.032.051-.013.013-.026.026-.026.032-.013.013-.02.033 0 .052v.039c0 .006 0 0-.006 0-.013-.039-.032-.097-.065-.097h-.025v-.006c0-.039-.046-.071-.09-.026.012 0 .032 0 .038.013a.227.227 0 0 1-.006.038c0 .039.025.058.07.058.007 0 .013 0 .013.007v.019c-.07-.032-.103 0-.103.032v.032c-.025.013-.032.052.013.084 0-.013 0-.038.013-.045h.013c.006.007.02.013.02.02 0 0 .019 0 .038-.013h.02c.006 0 .012.006.018.012v.013c-.045.045-.038.084.02.097-.026.051-.11.032-.103-.045-.058.096.038.167.122.128 0 .033 0 .103.013.103 0 0 0-.019.02-.019 0 0 .006 0 .006.013 0 .02.013.051.045.051 0-.012 0-.025.013-.032.012.02.032.045.038.065.039.07.122.257.303.334-.09.052-.155.136-.213.206-.051.052-.128.103-.173.078-.02-.013-.026-.033-.052-.052-.02-.013-.045-.02-.058-.013 0 0-.02 0-.032.013-.032-.013-.084 0-.096.026.019 0 .038-.007.064.013v.032c0 .025.013.045.11.038 0 0 .012 0 .012.013-.013.007-.026.026-.051.013-.045-.013-.065-.045-.097 0 0 0-.013.013-.02.026h-.012c-.039.013-.07.084-.026.116 0-.013 0-.045.026-.058l.02.02c.025.038.057.064.122-.033.006-.006.006 0 .006 0 0 .045-.045.11.013.116h.025v.013c.013.051.078.064.11.051a.085.085 0 0 1-.058-.064h.026c.032-.032-.007-.077.013-.103 0-.007.012 0 .012 0 .013.02.04.064.09.038.026-.019.033-.038.04-.064.064-.026.121-.045.167-.032-.007-.032.032-.077.096-.097.07-.019.097 0 .122.02a.255.255 0 0 1 .071-.116c-.006.27.36.264.444.425a.637.637 0 0 0-.302-.058c-.09.019-.245.096-.264.2-.013.083.07.23.154.289-.103.02-.141-.013-.238.013h-.013c-.083.006-.096-.136-.193-.097 0 0-.019.013-.026.02-.038 0-.09.044-.083.083.013-.013.032-.032.064-.032v.02c0 .012 0 .031.039.031.02 0 .026-.006.038-.006.007 0 .013 0 .013.013 0 .038-.122-.02-.103.084 0 0 .013.019.02.025 0 .032.019.065.077.045-.013-.006-.032-.019-.026-.038h.026c.006 0 .013 0 .013-.02.006 0 .013 0 .013.013 0 0-.007.013-.007.026 0 0 0 .026.007.032 0 .039.051.077.103.039-.013 0-.052-.007-.052-.026.007 0 .026-.006.026-.013.006 0 .013-.02.013-.032 0-.013 0-.013.013-.013h.025c.013 0 .013 0 .02.007.013.019.038.045.077.032.02-.007.032-.02.032-.026.013.006.032.013.045.026-.013-.039.02-.071.103-.013l.064-.045s.078.032.11 0c.051-.045.026-.045.026-.09-.039-.084-.058-.071-.071-.148-.026-.136.16-.213.27-.193.02.083.142.309.341.38.129.044.174-.09.22-.078.005 0 .012.02.025.039-.007.058 0 .116-.013.148-.013.032-.077 0-.129 0-.026 0-.045.013-.045.02-.038 0-.083.038-.083.083a.147.147 0 0 1 .07-.039v.02c0 .05.065.07.097.032 0-.007.02 0 .013.006-.032.026-.084.077-.039.097l.026.013c0 .032.02.064.051.07-.012-.02-.012-.026 0-.064h.026c.032 0 .02-.064.058-.084h.006c-.012.039-.019.084.013.097 0 0 .013 0 .026.006.013.026.045.052.097.026-.013 0-.039-.013-.045-.032.012-.013.025-.026.025-.032.026-.084-.045-.084-.045-.116 0-.039.084-.013.084-.097v-.013c.038-.019.077-.045.084-.077a.23.23 0 0 1-.103-.02l-.033-.019zM27.463 19.97h-.058c-.071-.013-.161.025-.168.115-.006.09.058.148.148.148h.045s-.006.045-.006.065c-.02.128-.052.354-.097.605l-.663-.946c.31-.123.56-.258.696-.258.109 0 .128.052.109.27m-.257 1.642-1.043-1.5c.116-.026.225-.058.335-.096l.785 1.12-.077.476zm-.11.675-1.48-2.123h.135c.077 0 .154 0 .225-.013l1.184 1.699c-.025.167-.051.315-.07.437m-1.66-2.11 1.621 2.33c-.869-.342-1.731-1.12-1.622-2.33zm2.413-.18h-.078v-.078c.013-.258-.148-.457-.424-.457-.251 0-.734.322-1.403.322-.29 0-.631-.142-.843-.264l-.084.2v-.02a.17.17 0 0 0-.167-.167.17.17 0 0 0-.168.167c0 .09.078.167.168.167a.168.168 0 0 0 .128-.064l-.083.2.09.038c-.097 1.024.656 2.324 1.995 2.723.2-.052.399-.026.399.193 0 .135-.064.193-.187.193-.077 0-.128-.045-.128-.103 0-.09.154-.032.173-.097.02-.083-.032-.116-.122-.116s-.232.065-.232.213c0 .187.148.296.303.296.148 0 .457-.084.418-.45.071 0 .155-.007.168-.078l.012-.206-.07-.013.058-2.342h.051c.084.012.16-.033.167-.123 0-.096-.07-.135-.135-.141M26.665 15.052s.012-.032.025-.032c.02 0 .026 0 .032-.02.013-.018-.012-.025-.025-.044.019 0 .025-.013.019-.02-.013-.012-.032.007-.039 0 0-.006.013-.019.02-.019.006-.006.013-.006.025 0l.084.039s.02.006.02.02V15c-.007 0-.007-.026-.026-.026-.013 0-.013.013 0 .032-.02-.006-.039-.02-.045 0a.055.055 0 0 0 0 .045c.006.007 0 .026 0 .045-.007.02-.033.045-.065.033-.032-.013-.026-.046-.013-.065m.084-.231s-.045.045-.064.019c-.026-.026 0-.032-.026-.071a.34.34 0 0 0 .09.052zm.064.038s.071.032.103.039c-.045.013-.038.032-.064.025-.032 0-.045-.038-.039-.07m.74.412c.316 0 .477-.103.477-.2 0-.354-.869-.135-.869-.348 0-.032.026-.064.064-.096h.013c.438-.039.444-.341.753-.405-.373-.052-.431.244-.592.257.084-.039.116-.142.11-.18-.078.103-.245.11-.342.231-.012.02-.019.039-.012.058-.058.039-.09.078-.09.13 0 .334.881.102.881.347 0 .083-.154.141-.392.141-.18 0-.31-.128-.65-.045 0-.058.115-.16.07-.219.032-.013.058-.038.058-.064-.02-.02-.045-.026-.064-.032.013-.013 0-.032-.02-.045 0 0-.006-.039-.019-.045a.31.31 0 0 0-.077-.052c-.039-.02-.064-.02-.077-.02h-.045c-.02 0-.045 0-.045.02a.098.098 0 0 0-.065-.026c-.013.033-.019.052-.006.09-.032 0-.065.084-.097.078.013.02.02.032.032.032-.025.045-.038.103-.064.11a.05.05 0 0 0 .026.025c-.026.07-.039.161-.045.2 0 0-.045-.039-.07-.058-.052-.033-.046-.052-.04-.103.007-.045.04-.084.04-.123 0 0 0-.032-.007-.038 0-.026-.045-.052-.071-.045.013.006.026.02.02.045-.014.006-.02.02-.027.02-.012.012-.019.031 0 .044v.013s0 .007-.006.02c-.006-.033-.013-.078-.045-.078h-.026c0-.032-.032-.058-.077-.02.013 0 .026 0 .032.014l-.013.032c-.006.032.02.045.058.051h.013v.013c-.058-.025-.09 0-.096.026v.026c-.026.013-.033.045 0 .064 0-.013 0-.032.019-.038h.013l.013.012s.012 0 .038-.012h.013s.006.006.02.012v.007c-.052.038-.046.07.006.083 0 0 .006 0 0 .013-.013.071-.116.058-.103-.013-.071.078.02.142.103.103h.013c0 .013.006.026.019.026 0 0 0-.02.02-.02v.007c0 .02 0 .045.032.045 0-.013 0-.032.012-.032.013 0 .032.058.084.11-.07.032-.187.057-.193.057-.02 0-.122-.012-.154.007-.052.026-.174.07-.206.02-.013-.02-.007-.033-.026-.065-.013-.02-.026-.032-.039-.032h-.032c-.02-.02-.064-.026-.084-.007.013 0 .032 0 .045.032 0 .007-.012.02-.012.026-.013.013 0 .039.07.071 0 0 .007.006 0 .013-.013 0-.032.006-.045 0-.032-.026-.032-.058-.07-.039l-.026.013h-.007c-.032 0-.09.039-.064.077 0-.006.02-.032.045-.038 0 .013.006.019.006.025.007.04.026.071.103.02h.007c-.02.032-.071.07-.032.096l.019.013v.007c-.006.045.038.077.064.077-.013-.013-.032-.032-.026-.07h.026c.039-.014.02-.065.039-.078h.013c0 .02.013.064.058.058.045 0 .064-.045.064-.065.013.013.032.026.026.052.013 0 .026-.013.032-.032.013.019.013.051-.02.083.02-.006.065-.025.078-.077.006.007.013.013.013.026.02 0 .045.006.096 0v.045s.013-.026.02-.026c.012 0 0 .045.025.077.013-.115.078-.07.148-.115.007-.007.013 0 .007 0 0 .013-.013.025-.032.038.025 0 .09-.025.09-.07 0-.007.026-.026.045-.04.025 0 .07-.006.083-.038 0 .013.02.045 0 .058.078 0 .155-.084.187-.09.167-.032-.103-.155.238-.135.026 0 .078-.02.097-.039-.026.052-.026.155.026.161.025 0 .07.02.09.039v.006a.133.133 0 0 0-.071.02c-.077.051-.084-.116-.168-.09 0 0-.012.012-.019.012-.032 0-.077.045-.07.077.012-.006.025-.025.05-.032v.02c0 .012 0 .025.033.025.02 0 .02-.006.032-.006.007 0 .007 0 .007.006 0 .033-.103-.019-.084.071 0 0 .007.02.013.026 0 .026.02.051.064.039-.006-.007-.026-.02-.026-.033h.02s.006 0 .013-.012c.006 0 .013 0 .013.006 0 0-.007.013-.007.02 0 0 0 .025.007.025 0 .032.045.064.09.032-.013 0-.045-.006-.045-.026.006 0 .019-.006.019-.006.006 0 .013-.02.013-.032 0-.007 0-.007.006-.007h.032c.007.02.033.039.065.026.058-.02.006-.064.051-.077h.032c.045.013.11.006.123-.013.013-.02 0-.103-.039-.129-.032-.013 0-.045-.026-.09.052.02.103.039.168.039.122 0 .006-.02.058-.052.058-.038.128-.019.148-.013.012 0 .025.007.025.026-.012.064.007.07-.006.097-.013.025-.064 0-.097 0a.081.081 0 0 0-.038.013c-.032.006-.065.032-.065.07.013-.006.033-.025.058-.025v.012c0 .046.052.058.078.033 0-.007.019 0 .006 0-.026.019-.07.058-.032.077 0 0 .013 0 .02.006 0 .026.019.052.038.058-.007-.013-.013-.025 0-.051h.02c.025 0 .012-.052.044-.071-.006.032-.013.064.013.077h.02c.006.026.038.039.07.02-.006 0-.026-.013-.032-.026.013-.013.02-.026.02-.026.018-.064-.04-.064-.04-.09 0-.032.065-.013.065-.077 0-.013 0-.033-.026-.039 0 0 .032 0 .045-.02-.045 0-.032-.038-.038-.064v-.013c.012-.012.025-.032.019-.07-.013.019-.07.045-.077 0 0 0 0-.032-.052-.026-.077.006-.122-.032-.27-.052-.007 0-.02-.006 0-.012M25.88 16.41s.019-.038.032-.038c.019 0 .032 0 .038-.026.007-.026-.013-.032-.032-.052.026 0 .032-.012.026-.025-.013-.013-.039.013-.039 0s.013-.02.02-.026c.012-.006.019-.006.032 0l.096.045s.02.013.02.026 0 .032-.007.032c-.006 0-.006-.032-.026-.032-.02 0-.02.013 0 .038-.025-.006-.045-.019-.058 0-.013.02-.006.033.007.052.006.013 0 .026-.007.051-.006.02-.038.058-.07.039-.04-.02-.033-.058-.02-.077m.103-.258s-.051.052-.077.026c-.026-.026 0-.032-.026-.084.032.02.09.058.103.058zm.077.039s.084.038.123.045c-.058.013-.039.032-.078.032-.032 0-.051-.045-.045-.077zm1.931.264c0-.097-.11-.155-.418-.155-.31 0-1.01.116-1.01-.058 0-.083.135-.077.302-.07a.12.12 0 0 0 .064.032c.4.116.87-.097 1.114-.026-.284-.219-.522.007-.83-.058.18 0 .238-.051.244-.096-.135.09-.399-.045-.56.058-.013.006-.02.012-.026.019-.225 0-.399 0-.399.141 0 .31.83.13 1.094.13.264 0 .316.025.316.076 0 .078-.258.09-.406.09-.225 0-.907-.115-1.32-.038.033-.071.11-.155.072-.206.038-.013.064-.045.064-.077a.133.133 0 0 0-.077-.032c.013-.02 0-.04-.02-.052 0 0-.012-.045-.019-.052a.476.476 0 0 0-.09-.064c-.045-.02-.077-.02-.096-.026-.013 0-.052.007-.058.007-.02 0-.045 0-.052.02-.02-.02-.045-.027-.07-.033-.014.032-.02.064-.014.11-.038 0-.077.096-.109.083.013.026.026.039.032.039-.032.058-.045.122-.077.122.02.032.039.045.052.045 0 .039-.007.084-.007.116l-.064-.026h-.02c-.012 0-.019 0-.025-.006h.025l-.038-.013c-.032-.026-.077-.077-.135-.116-.058-.032-.065-.064-.058-.129 0-.058.032-.103.032-.154a.164.164 0 0 0-.013-.045c0-.033-.051-.058-.077-.052.013.013.032.026.032.052-.013.013-.026.025-.026.032-.013.013-.019.032 0 .051v.039c0 .013 0 0-.006 0-.013-.039-.026-.097-.058-.097h-.026c0-.038-.039-.07-.09-.025.006 0 .032 0 .039.019 0 .013-.013.039-.013.039 0 .038.025.051.064.058.007 0 .013 0 .013.006v.02c0 .006 0 0-.006 0-.071-.033-.097 0-.103.032v.025c-.026.02-.033.058.012.084 0-.013 0-.039.02-.045h.013c0 .006.012.02.019.02.006 0 .02 0 .039-.014h.019s.013.007.02.013v.013c-.052.045-.046.09.018.103.007 0 .013.006.013.013-.012.09-.128.07-.116-.013-.07.097.04.174.13.129h.006c0 .019.013.032.025.032 0 0 0-.02.02-.02v.007c0 .026.006.051.038.058 0-.02 0-.032.013-.032s.058.064.123.11c.057.025.096.09.135.05-.007.059.051.13.038.13-.019 0-.18-.014-.219.006-.058.032-.206.084-.244.026-.013-.02-.013-.04-.026-.071-.013-.02-.032-.039-.045-.039h-.032c-.026-.026-.077-.026-.097-.013.02 0 .039.007.052.039 0 .013-.013.026-.013.026-.013.019 0 .051.084.083 0 0 .012.013 0 .013-.013 0-.032.007-.052 0-.038-.026-.038-.07-.084-.045 0 0-.019.007-.025.013h-.007c-.038 0-.103.045-.077.09 0-.013.02-.032.052-.038 0 .012.006.025.006.032.006.045.026.083.122.019.013-.006.013 0 .007 0-.026.039-.084.077-.032.11l.019.019v.006c-.007.052.051.097.077.09a.086.086 0 0 1-.026-.077c.013 0 .026.006.026 0 .045-.02.026-.07.052-.09.006-.006.013 0 .013 0 0 .026.012.077.07.07.052 0 .078-.044.071-.076.02.012.032.032.026.057.006 0 .032-.019.038-.038.013.026.013.058-.019.096.02-.006.077-.032.09-.09a.14.14 0 0 1 .02.032c.019 0 .051.007.109 0h.006c-.006.02-.006.045 0 .052 0-.007.013-.026.02-.026.013 0 0 .052.032.084.013-.135.083-.084.174-.142h.006c0 .02-.013.032-.039.045.097.02.245-.122.27-.186.04 0 .072-.007.09-.007.271.026.085-.244.522-.167a.175.175 0 0 0 .103-.052c-.032.058-.032.174.026.187a.21.21 0 0 1 .103.045c.006 0 0 .007 0 .007a.23.23 0 0 0-.084.019c-.09.064-.096-.142-.193-.103 0 0-.02.013-.026.02-.038 0-.09.044-.083.09.013-.014.032-.033.064-.033v.02c0 .012 0 .032.039.032.019 0 .025-.013.038-.013.007 0 .013 0 .013.012 0 .04-.122-.019-.103.084 0 0 .013.026.02.032 0 .033.019.065.077.045-.013-.006-.032-.019-.026-.038h.026s.013 0 .013-.02c0 0 .006 0 .006.007v.02s0 .025.006.031c0 .04.052.078.104.04-.013 0-.052-.007-.058-.027.012 0 .025-.013.025-.013.007-.006.013-.019.013-.038 0-.007 0-.007.013-.007h.026c.013 0 .013 0 .02.007.012.026.038.045.076.032.065-.026.013-.084.065-.09h.038c.052.013.129.013.142-.013.013-.026.006-.122-.052-.154-.032-.013 0-.058-.025-.103a.45.45 0 0 0 .193.045c.141 0 .18-.02.244-.058.071-.045.148-.02.174-.02.02 0 .032.013.026.039-.02.07.006.077-.007.116-.012.026-.077 0-.115 0-.026 0-.046.013-.046.02-.038.006-.077.038-.07.076.013-.006.032-.032.064-.032v.02c0 .051.058.07.09.032 0-.007.02 0 .013.006-.032.02-.077.071-.039.084 0 0 .013.013.026.013 0 .032.02.064.045.064-.006-.02-.013-.026 0-.064h.026c.032 0 .02-.065.051-.084-.012.039-.019.077.013.09h.026c.007.026.045.052.084.026-.007 0-.033-.013-.039-.032.006-.013.02-.026.02-.032.025-.078-.046-.078-.046-.11 0-.038.078-.013.078-.09 0-.013 0-.039-.033-.045 0 0 .046 0 .058-.026-.058 0-.038-.045-.045-.07v-.014c.02-.012.032-.038.026-.083-.02.026-.077.058-.09 0 0 0 0-.039-.058-.026-.096.007-.16-.013-.341-.026.206 0 .502-.051.502-.167M25.525 17.781s.02-.038.026-.038c.02 0 .032 0 .039-.026.006-.026-.013-.032-.032-.045.019-.007.032-.02.019-.026-.013-.013-.032.006-.039 0 0-.006.013-.02.02-.026.012-.013.019-.006.032 0l.096.045s.02.013.02.026v.032c-.013 0-.007-.025-.026-.032-.013 0-.013.013 0 .032-.02-.006-.045-.02-.052 0-.006.02 0 .032.007.045.006.007 0 .026 0 .045-.007.02-.039.052-.065.039a.056.056 0 0 1-.019-.077m.084-.232s-.052.045-.071.026c-.026-.026 0-.032-.026-.077.032.019.084.057.103.057m.065.033s.077.038.115.045c-.051.013-.038.032-.077.026-.032 0-.045-.046-.038-.078m2.156.245c0-.09-.097-.148-.393-.148-.296 0-1.204.11-1.204-.058 0-.103.31-.065.535-.058.006.02.032.032.064.045.38.11.779-.148 1.05-.058-.22-.193-.497.02-.78-.039.168 0 .341-.032.354-.077-.128.084-.502-.058-.656.039-.013 0-.02.013-.026.02-.283 0-.624-.04-.624.128 0 .296 1.036.122 1.28.122.245 0 .303.026.303.07 0 .072-.245.085-.386.085-.232 0-1.197-.13-1.583-.007.019-.064.116-.167.07-.219.04-.012.065-.045.065-.07a.194.194 0 0 0-.071-.04c.013-.012 0-.038-.02-.05 0 0-.012-.046-.019-.052-.019-.013-.045-.039-.09-.058-.045-.02-.07-.02-.09-.026-.013 0-.051.007-.051.007-.02 0-.045 0-.052.019a.098.098 0 0 0-.064-.026c-.02.032-.02.058-.013.103-.039 0-.07.09-.103.084.013.026.026.032.032.038-.026.052-.038.116-.077.116l.032.033c0 .032-.013.064-.013.09l-.032-.013h-.045c-.013 0-.032 0-.052-.007-.044 0-.083-.077-.16-.128-.058-.032-.058-.065-.058-.123 0-.051.026-.096.019-.148 0 0-.006-.032-.013-.045-.013-.032-.051-.058-.077-.051.013.013.026.02.032.051-.013.013-.02.026-.026.026-.013.013-.013.032 0 .052v.038c0 .007 0 0-.006 0-.013-.038-.032-.09-.064-.09h-.026v-.006c0-.039-.045-.065-.084-.026.007 0 .026 0 .032.013a.228.228 0 0 1-.006.038c0 .039.026.052.07.052.007 0 .007 0 .014.006v.013c0 .007 0 .007-.007 0-.064-.032-.096 0-.096.032v.026c-.026.02-.033.052.012.077 0-.013 0-.038.013-.038h.007c.006.006.02.012.02.019 0 0 .018 0 .038-.013h.019s.013.006.02.013v.013c-.046.045-.04.084.025.096.006 0 .006 0 .006.013 0 .084-.115.065-.109-.013-.058.097.045.168.129.123h.006c0 .013.013.025.026.032 0 0 0-.02.02-.02v.007c0 .026.012.052.038.052 0-.02 0-.033.013-.033s.077.11.193.18c.026 0 .058 0 .07-.032 0 .013.014.02.026.026 0 .051.039.122.026.122-.02 0-.206-.006-.244.013-.058.032-.194.077-.232.02-.013-.02-.013-.04-.026-.065a.12.12 0 0 0-.045-.039h-.032c-.02-.025-.07-.025-.09-.012.02 0 .032.006.051.032a.094.094 0 0 1-.013.026c-.006.019 0 .045.084.077 0 0 .013.006 0 .013-.013.006-.032.013-.051 0-.033-.026-.039-.065-.078-.045l-.025.012h-.013c-.039 0-.097.046-.071.09 0-.012.02-.038.045-.038 0 .006.006.02.006.026.007.045.026.077.116.02.007 0 .007 0 .007.005-.026.04-.084.078-.039.104 0 0 .013.006.02.012v.007c-.007.051.044.09.077.083a.087.087 0 0 1-.026-.077c.013 0 .026.013.026.007.045-.013.025-.071.045-.084.006 0 .013 0 .013.006 0 .02.012.071.064.065.045 0 .07-.045.07-.071.02.013.033.026.026.052.007 0 .026-.02.04-.04.005.027.012.059-.02.091.02 0 .07-.032.083-.09.007.006.013.02.02.026.02.006.051.012.103 0 0 .025 0 .045.006.051 0 0 .013-.026.02-.026.012 0 0 .052.025.078.013-.13.168-.065.245-.116.013-.007.013 0 .006 0 0 .013-.02.032-.038.045.025 0 .07-.013.109-.045l-.013.013.135-.058s0-.026.007-.039c.013 0 .032 0 .045-.013.083.007.077-.064.11-.058.482.065.205-.206.771-.154.026 0 .04-.013.065-.032-.032.057-.032.148.026.16.025 0 .077.02.096.04v.006a.163.163 0 0 0-.077.019c-.09.058-.09-.129-.187-.097 0 0-.019.013-.026.02-.038 0-.09.045-.077.083a.13.13 0 0 1 .058-.038v.019c0 .013 0 .032.032.032.02 0 .026-.006.039-.006.006 0 .013 0 .013.013 0 .032-.116-.02-.097.077l.02.032c0 .026.019.058.07.045-.006-.006-.032-.02-.025-.032h.025s.007 0 .013-.013c0 0 .007 0 .007.006v.02s0 .026.006.032c0 .032.045.07.097.039-.013 0-.045-.007-.052-.026.007 0 .02-.013.026-.013.013 0 .013-.02.013-.039 0-.006 0-.006.013-.006h.025c.013 0 .013 0 .02.006.006.02.038.039.07.033.065-.026.014-.078.059-.09h.038c.052.012.122.012.135-.014.013-.025.007-.109-.045-.141-.032-.013 0-.052-.026-.097.058.02.11.045.187.045.135 0 .168-.019.232-.058.064-.038.141-.019.16-.019.02 0 .033.013.026.032-.012.071.007.078-.006.11-.013.026-.07.006-.11 0-.025 0-.044.02-.044.02-.039 0-.071.038-.071.076.013-.006.038-.025.064-.032v.013c0 .052.058.064.084.032h.013c-.026.02-.078.071-.039.084l.026.013c0 .026.02.058.045.064-.007-.013-.013-.026 0-.058h.026c.032 0 .012-.058.051-.077h.007c-.013.032-.02.077.012.084h.026c.007.025.045.045.084.025-.007 0-.032-.012-.039-.025.013-.013.02-.026.02-.032.019-.071-.04-.071-.04-.104 0-.032.072-.012.072-.09 0-.012-.007-.032-.032-.045 0 0 .038 0 .051-.019-.058 0-.039-.045-.045-.07v-.014a.087.087 0 0 0 .026-.077c-.02.026-.077.052-.077 0 0 0 0-.038-.058-.026-.09.007-.149-.012-.322-.025.167-.013.476-.045.476-.161M29.702 19.512h-.006.006zm.052.239s.02-.039.032-.039c.02 0 .032 0 .039-.026.006-.026-.013-.032-.033-.045.02 0 .033-.02.02-.026-.013-.012-.032.007-.039 0 0-.012.013-.019.02-.025.006-.007.019 0 .032 0l.096.045s.02.013.02.025v.033c-.013 0-.007-.026-.026-.033-.013 0-.013.013 0 .033-.026-.007-.045-.02-.058 0-.007.019-.007.032.006.045 0 .006 0 .026-.006.051-.007.02-.032.045-.065.032-.032-.019-.032-.058-.019-.07m.097-.239s-.045.052-.071.026c-.026-.026 0-.032-.026-.077.032.02.084.052.103.058m.064.026s.084.038.116.045c-.051.013-.038.032-.07.032-.033 0-.046-.045-.046-.077zm2.124.553v-.013c.02-.013.032-.038.032-.077-.019.026-.083.058-.083 0 0 0 0-.039-.058-.026-.09.007-.174-.006-.348-.025-.012 0-.019-.007 0-.013.168-.013.483-.039.483-.148 0-.09-.103-.148-.399-.148-.296 0-1.203.109-1.203-.058 0-.103.302-.065.534-.052a.122.122 0 0 0 .064.039c.38.11.811-.174 1.043-.11-.296-.103-.49.078-.773.02.168 0 .348-.032.354-.077-.128.083-.502-.058-.656.038-.013 0-.02.013-.026.02-.277 0-.618-.04-.618.128 0 .296 1.03.122 1.281.122.251 0 .303.026.303.071 0 .071-.245.09-.387.09-.231 0-1.197-.128-1.583-.013.02-.064.116-.167.07-.212a.11.11 0 0 0 .065-.077.103.103 0 0 0-.07-.032c.012-.02 0-.039-.02-.052 0 0-.013-.045-.02-.051a.361.361 0 0 0-.083-.058c-.045-.02-.07-.02-.09-.026-.013 0-.051.006-.051.006-.02 0-.045 0-.052.026a.142.142 0 0 0-.07-.032.152.152 0 0 0-.007.11c-.039 0-.07.09-.103.077.013.025.026.032.032.038-.026.052-.038.116-.077.116.02.026.039.045.051.045 0 .032-.006.064-.006.09l-.052-.019h-.045c-.012 0-.032-.007-.045-.007-.045 0-.083-.077-.16-.128-.058-.032-.058-.065-.058-.122 0-.052.025-.097.019-.142 0 0-.007-.032-.013-.045-.013-.032-.052-.058-.077-.052.013.007.025.02.032.052-.013.013-.02.026-.026.026-.006.013-.013.032 0 .051v.039c0 .013 0 0-.006 0-.013-.032-.032-.09-.065-.09h-.025c0-.039-.046-.071-.084-.02.013 0 .032 0 .039.02a.07.07 0 0 1-.013.038c0 .039.025.052.064.052.006 0 .013 0 .013.006v.013c-.064-.032-.097 0-.097.032v.026c-.025.02-.025.051.013.077 0-.013 0-.038.013-.045h.007c.006 0 .012.013.019.013.006 0 .013 0 .038-.013h.013s.013.007.02.013v.013c-.045.045-.039.09.019.096.006 0 .006 0 .006.013 0 .084-.116.065-.109-.019-.058.096.045.167.129.122h.013c0 .013.012.032.025.032 0 0 0-.019.02-.019v.007c0 .019.013.051.038.051 0-.02 0-.032.013-.032s.07.122.193.186c0-.012.045-.032.071-.044 0 .025.02.044.045.051l.02-.013c-.007.058.057.116.044.116-.019 0-.128-.013-.167 0-.058.032-.193.077-.232.026-.012-.026-.006-.039-.025-.071a.12.12 0 0 0-.045-.039h-.033c-.025-.026-.07-.026-.09-.013.013 0 .032.007.052.033 0 .012-.013.025-.013.025-.013.02 0 .045.077.078 0 0 .013.006 0 .012-.013 0-.032.007-.045-.006-.032-.026-.039-.064-.077-.039l-.026.013h-.006c-.039 0-.097.045-.071.09 0-.012.02-.038.045-.045 0 .013.006.026.006.026.013.045.026.077.116.02.007 0 .013 0 0 0-.02.038-.084.077-.032.102 0 0 .013.013.02.013v.007c-.007.051.044.09.077.083a.108.108 0 0 1-.033-.077c.013 0 .026.006.026.006.045-.019.026-.07.052-.09 0 0 .006 0 .013.007 0 .02.012.07.064.064.051 0 .07-.045.064-.07h.007c.019.012.032.032.025.057.007 0 .026-.019.039-.038.007.026.013.058-.02.09a.13.13 0 0 0 .084-.09c.007.006.02.019.02.026.019.006.051.012.103 0h.006v.051s.013-.026.02-.026c.012 0 0 .052.032.084.012-.129.083-.077.167-.129.013-.006.013 0 .006 0 0 .013-.019.032-.038.045.032.026.148-.051.148-.103 0-.013.045-.02.083-.026.084 0 .071-.064.11-.057.483.064.206-.206.772-.148.026 0 .039-.033.064-.052-.032.052-.032.167.026.18.026 0 .078.02.097.039v.013a.162.162 0 0 0-.077.02c-.084.057-.09-.13-.18-.098 0 0-.02.013-.026.02-.039 0-.09.045-.078.084.013-.013.033-.033.058-.033v.02s0 .032.032.032c.02 0 .026-.007.033-.007.006 0 .013 0 .013.013 0 .039-.116-.02-.097.078 0 0 .013.025.02.032 0 .032.019.058.07.045-.013-.007-.032-.02-.026-.039h.026s.013 0 .013-.013c0 0 .013 0 .013.007 0 0-.007.012-.007.019 0 0 0 .032.007.032 0 .039.045.077.096.039-.012 0-.045-.007-.051-.026.013 0 .026-.013.026-.013.006 0 .012-.02.012-.032 0-.007 0-.007.007-.007h.026c.013 0 .013 0 .013.007.012.02.038.039.07.032.065-.026.013-.077.065-.09h.038c.052.013.123.013.136-.013.012-.026.006-.11-.046-.141-.032-.013 0-.052-.025-.103a.4.4 0 0 0 .186.045c.136 0 .18-.02.245-.058.07-.045.142-.02.167-.02.013 0 .033.013.02.033-.02.07 0 .077-.02.109-.013.026-.07 0-.11 0a.074.074 0 0 0-.044.02c-.032.006-.077.038-.077.076.012-.006.038-.025.064-.032v.013c0 .045.051.065.084.032 0 0 .019 0 .006.007-.032.02-.084.064-.045.084 0 0 .013.006.02.012 0 .033.012.058.038.065-.006-.02-.006-.026.006-.058h.026s.02-.058.058-.077c-.013.032-.026.077 0 .083h.026c.006.026.038.045.077.026-.006 0-.032-.013-.032-.026.013-.013.026-.026.026-.032.025-.07-.033-.07-.033-.103 0-.032.071-.013.078-.09 0-.013 0-.032-.026-.039 0 0 .038 0 .051-.019-.051 0-.032-.045-.038-.07M29.928 20.928c-.033 0-.046-.045-.039-.077a.35.35 0 0 0 .11.045c-.052.013-.04.032-.071.032zm-.046.065s-.006-.026-.025-.032c-.013 0-.013.013 0 .032-.02-.007-.039-.02-.052 0-.006.02 0 .026.007.045.006.006 0 .026-.007.045-.006.02-.032.045-.064.032-.032-.02-.026-.051-.02-.07.014-.02.02-.033.026-.033.02 0 .033 0 .039-.02.006-.025-.013-.031-.032-.044.02 0 .032-.013.02-.026-.014-.013-.033.006-.04 0 0-.013.013-.02.02-.026a.02.02 0 0 1 .026 0l.09.045s.019.013.012.026v.032m-.057-.18s-.045.045-.071.02c-.02-.026 0-.033-.026-.078.026.02.077.052.097.058zm.913.02s.026.038.065.044c.367.103.779-.167.997-.103-.283-.103-.463.071-.74.02.161 0 .329-.033.341-.078-.128.084-.476-.051-.624.04-.006 0-.02.012-.026.018-.2 0-.36 0-.36.13 0 .282.753.115.991.115s.206.026.206.07c0 .065-.27.084-.399.084-.206 0-.817-.109-1.19-.032.032-.064.096-.141.057-.186.032-.013.058-.045.058-.071a.142.142 0 0 0-.07-.032c.012-.02 0-.039-.013-.052 0 0-.013-.039-.02-.045a.358.358 0 0 0-.083-.058c-.046-.02-.065-.02-.084-.026-.007 0-.045.007-.052 0-.019 0-.045 0-.045.02-.012-.02-.038-.026-.064-.026-.013.032-.02.058-.013.103-.032 0-.07.09-.096.077.012.026.019.032.032.039-.026.051-.039.11-.071.116.013.012.02.025.026.032a.293.293 0 0 0-.02.103l-.032-.013h-.013c-.045 0-.07 0-.148-.045-.058-.032-.058-.058-.058-.116 0-.051.026-.09.02-.135 0 0-.007-.032-.013-.045-.013-.032-.052-.052-.077-.045.013.006.025.02.032.045-.013.013-.02.026-.02.026-.012.012-.019.032 0 .051v.039c0 .006 0 0-.006 0-.013-.032-.026-.09-.058-.09h-.02v-.007c0-.039-.038-.064-.083-.026.007 0 .026 0 .032.013 0 .013-.013.032-.013.039 0 .038.026.051.065.051.006 0 .013 0 .013.007v.013c-.065-.026-.09 0-.09.032v.026c-.026.013-.033.051.012.077 0-.013 0-.032.013-.039h.013c0 .007.013.013.013.02 0 0 .013 0 .039-.013h.013c.006 0 .012.006.019.012v.007c-.045.045-.039.084.02.09.006 0 .006.007.006.013 0 .077-.11.064-.103-.02-.058.09.045.162.122.116h.006c0 .013.013.026.026.033 0 0 0-.02.02-.02v.007c0 .02.006.045.038.051 0-.013 0-.032.013-.032s.013-.032.11.02c.006.012.019.032.038.038l.07-.013c-.006.052.007.135 0 .135-.019 0-.121-.013-.16.007-.052.026-.18.077-.219.019-.013-.02-.006-.039-.026-.064-.013-.02-.032-.033-.045-.033h-.032s-.07-.025-.09-.012c.013 0 .038.006.051.032a.092.092 0 0 0-.013.026c-.012.019 0 .045.078.07 0 0 .013.007 0 .013-.013 0-.032.007-.045 0-.033-.026-.039-.064-.071-.038 0 0-.013 0-.026.012h-.013c-.032 0-.09.045-.064.084 0-.013.02-.032.045-.039 0 .013.006.02.006.026.007.045.026.078.11.02h.006c-.019.038-.077.07-.032.103 0 0 .013.006.02.012v.007c-.007.045.044.084.07.077-.013-.013-.032-.038-.026-.07.013 0 .026.006.026.006.039-.02.02-.065.045-.084h.013c0 .02.013.064.065.064.045 0 .07-.045.064-.07h.006c.013.006.026.025.026.051.006 0 .026-.02.032-.038.007.025.013.051-.02.083.02-.006.072-.032.078-.084.007.007.013.02.02.026.012 0 .044.013.096 0h.006v.052c0-.007.013-.026.02-.026.013 0 0 .052.026.077.012-.122.109-.09.186-.141h.007c0 .012-.013.032-.033.038.084.052.174-.064.194-.129.012 0 .019-.012.025-.025 0 .013.007.025-.013.038.084 0 .071-.058.103-.058.245.02.058-.206.45-.135.027 0 .078-.019.097-.045-.025.052-.032.161.026.168.026 0 .077.019.097.038v.013a.191.191 0 0 0-.078.02c-.083.05-.083-.13-.173-.09 0 0-.02.012-.026.012-.032 0-.084.045-.077.077.013-.013.032-.032.058-.032v.02c0 .012 0 .025.032.025.02 0 .026-.013.032-.013 0 0 .013 0 .013.013 0 .032-.11-.02-.09.071 0 0 .013.02.019.026 0 .026.02.058.07.038-.006 0-.025-.019-.025-.032h.02s.006 0 .012-.013c0 0 .013 0 .013.007v.02s0 .025.007.031c0 .033.045.071.096.033-.013 0-.045-.007-.051-.026.006 0 .019-.007.025-.007a.05.05 0 0 0 .013-.032c0-.006.007-.006.013-.006h.02c.012 0 .012 0 .019.006.013.026.032.039.07.032.059-.019.007-.077.059-.083h.038c.045.012.116.006.129-.013.013-.026.006-.11-.045-.135-.032-.013 0-.052-.026-.097a.487.487 0 0 0 .425-.006.208.208 0 0 1 .16-.013c.014 0 .026.013.014.032-.033.064-.013.077-.033.103-.019.026-.07.006-.109 0-.02 0-.039.013-.039.02-.038.006-.083.038-.09.076.013-.006.039-.025.065-.032v.013c-.007.045.038.058.077.032 0-.006.02 0 .006.007-.032.02-.09.064-.058.077l.026.013c-.013.026 0 .058.026.058 0-.013 0-.026.02-.052h.025c.026 0 .032-.058.064-.077-.02.032-.038.07-.006.084h.02c0 .026.031.045.076.026-.006 0-.032-.013-.032-.026l.032-.032c.039-.071-.019-.071-.013-.097.007-.032.071-.013.09-.077 0-.013 0-.032-.019-.045 0 0 .039 0 .058-.026-.051 0-.026-.039-.026-.064v-.013a.098.098 0 0 0 .046-.071c-.02.026-.084.051-.078 0 0 0 .007-.032-.045-.026a2.135 2.135 0 0 1-.367-.026c-.012 0-.019-.006 0-.012.161-.013.49-.033.49-.142 0-.084-.02-.142-.297-.142-.276 0-.913.103-.913-.051 0-.077.122-.07.27-.064M29.6 22.357s.019-.032.025-.032c.02 0 .032 0 .032-.02.007-.019-.013-.032-.032-.038.02-.006.032-.013.02-.026-.014-.012-.033.007-.04 0 0-.006.014-.019.014-.025.006-.007.019 0 .025 0l.084.038s.013.013.013.026v.026c-.006 0-.006-.026-.02-.026-.012 0-.012.006 0 .026-.019 0-.038-.02-.05 0-.007.019-.007.025.006.045 0 .006 0 .026-.007.045-.006.02-.032.045-.058.032-.032-.02-.025-.052-.02-.064m.11-.22s-.045.046-.07.02c-.026-.02 0-.026-.026-.07.025.019.077.05.096.05zm.065.033s.07.032.103.045c-.052.013-.039.032-.065.026-.032 0-.045-.039-.038-.071zm.675-.032s.026.038.065.045c.36.103.772-.168.997-.11-.283-.096-.47.078-.74.02.161 0 .329-.032.341-.078-.128.084-.476-.057-.624.033-.013.006-.02.019-.026.025-.11.026-.206.084-.206.168 0 .238.927.051.927.128 0 .065-.18.123-.425.123-.186 0-.502-.122-.907-.02.026-.07.116-.173.077-.218.032-.013.058-.039.058-.065a.092.092 0 0 0-.064-.025c.006-.02 0-.033-.02-.052 0 0-.012-.038-.019-.045a.31.31 0 0 0-.077-.052c-.039-.019-.064-.019-.084-.025a.41.41 0 0 0-.045.013c-.02 0-.045 0-.045.019a.096.096 0 0 0-.058-.026.162.162 0 0 0-.013.097c-.032 0-.064.083-.096.07.013.02.02.033.032.033-.026.051-.039.103-.07.11.012.018.025.025.031.031a.54.54 0 0 0-.012.226c-.058-.058-.142-.194-.2-.226-.052-.032-.052-.058-.052-.11 0-.044.02-.09.02-.128 0 0-.007-.032-.013-.045-.007-.026-.045-.051-.07-.045.012.007.025.02.031.045-.006.007-.019.02-.019.026a.031.031 0 0 0 0 .045V22.158c-.013-.033-.026-.084-.058-.084h-.02v-.006c0-.033-.038-.058-.076-.02.006 0 .025 0 .032.013 0 .013-.007.032-.007.032 0 .032.026.045.058.045h.013v.013c0 .007 0 .007 0 0-.064-.026-.09 0-.09.026v.026c-.02.013-.026.045.013.07 0-.012 0-.032.013-.038h.006l.02.013s.012 0 .038-.013h.013s.013.006.02.013v.013c-.04.038-.033.077.018.09.007 0 .013 0 .013.013 0 .077-.103.064-.096-.013-.058.09.045.154.116.11h.006c0 .012.013.025.026.025 0 0 0-.013.013-.02 0 0 .006 0 .006.007 0 .02.007.045.032.052 0-.013 0-.033.007-.033.013 0 0 .116.11.18.019.065.07.097.128.09.02.046.045.09.039.09-.013 0-.142-.012-.18 0a.407.407 0 0 1-.116.04h-.007.007c-.04 0-.071 0-.09-.02-.014-.02-.007-.032-.026-.064-.013-.02-.026-.032-.039-.032h-.032c-.02-.02-.064-.026-.084-.013.013 0 .032.006.045.032 0 .006-.013.026-.013.026-.012.019 0 .045.071.07 0 0 .013.007 0 .013-.013 0-.026.007-.045 0-.032-.026-.038-.058-.07-.038l-.026.012h-.007c-.032 0-.09.04-.064.078 0-.013.02-.032.045-.039 0 .007.006.02.006.026 0 .038.026.07.103.02.013 0 .013 0 0 0-.02.031-.07.063-.032.096 0 0 .013 0 .02.013v.012c-.007.046.044.078.064.078-.013-.013-.033-.032-.026-.071.006 0 .02.006.026 0 .038-.013.019-.065.045-.077h.006c0 .019.013.064.058.058.045 0 .065-.039.065-.065.012.007.032.026.025.052.007 0 .026-.02.032-.033.007.02.013.052-.019.078.02 0 .064-.026.077-.078a.05.05 0 0 1 .013.026c.013.007.045.013.09 0h.007v.052s.013-.026.02-.026c.012 0 0 .045.025.07.013-.115.077-.07.148-.122h.006c-.006.013-.013.026-.032.04.032 0 .11-.04.11-.078 0-.02.051-.064.07-.206h.032c.097-.006.142-.077.245-.084-.026.026-.032.097-.032.142 0 .051.07.116.09.129v.006a.132.132 0 0 0-.07.02c-.078.05-.085-.117-.168-.09 0 0-.02.012-.026.019-.032 0-.077.038-.07.077a.102.102 0 0 1 .05-.032v.019s0 .026.033.026c.02 0 .02-.007.032-.007 0 0 .013 0 .013.013 0 .032-.11-.02-.084.07 0 0 .007.02.013.027 0 .025.02.051.065.038-.013-.006-.026-.019-.026-.032h.02s.012 0 .012-.013c0 0 .006 0 .006.007 0 0-.006.012 0 .019 0 0 0 .026.007.026 0 .032.045.064.09.032-.013 0-.045 0-.045-.02.013 0 .02-.006.026-.006.006 0 .013-.02.013-.032 0-.013 0-.013.006-.013h.02c.012 0 .012 0 .012.006.013.02.032.04.065.026.058-.019.012-.064.051-.077h.032c.045.013.077.02.09 0 .013-.02 0-.103-.045-.129-.026-.013.039-.193-.096-.276.064.012.27.045.302 0a.307.307 0 0 1 .142.07c.006.013.013.026 0 .039-.058.032-.045.052-.077.064 0 0-.039-.045-.052-.051-.02-.013-.039 0-.045 0-.032-.007-.07 0-.084.032.013 0 .039-.013.065 0v.013c0 .006 0 .02.013.026v.006c-.033 0-.09-.013-.078.026v.026c-.019.019-.025.051-.012.07 0-.012.012-.019.038-.032 0 .007.013.013.013.02.02.019.052-.033.084-.02 0 0 .006 0 0 .007-.033.012-.065.032-.052.057 0 0 0 .013.013.02-.013.02 0 .058.039.07 0-.006-.013-.032 0-.044h.032c.064-.033.02-.071.045-.09.026-.02.051.038.103-.007.006 0 .02-.026.006-.045 0 0 .026.032.045.02-.038-.033 0-.046.02-.072 0 0 0-.006.012 0 .02 0 .04 0 .065-.032-.026 0-.097-.038-.052-.051.065-.026.071-.058.046-.09-.052-.065-.149-.071-.155-.142h.09c.316 0 .515-.083.509-.186-.013-.213-.947.019-.947-.136 0-.045.058-.083.13-.103M15.292 5.842a.228.228 0 0 0-.225-.225.228.228 0 0 0-.226.225c0 .123.104.226.226.226a.228.228 0 0 0 .225-.226zM15.215 5.237a.228.228 0 0 0-.226-.225.228.228 0 0 0-.225.225c0 .123.103.226.226.226a.228.228 0 0 0 .225-.226zM15.344 4.967a.224.224 0 0 0 .225-.225.228.228 0 0 0-.226-.226.228.228 0 0 0-.225.226c0 .122.103.225.226.225zM15.948 4.928a.224.224 0 0 0 .226-.225.228.228 0 0 0-.226-.225.228.228 0 0 0-.225.225c0 .122.103.225.225.225zM18.523 4.51c.09.09.232.09.322 0a.225.225 0 0 0 0-.322.225.225 0 0 0-.322 0 .225.225 0 0 0 0 .322zM18.471 4.027a.225.225 0 0 0 0-.321.225.225 0 0 0-.321 0 .225.225 0 0 0 0 .321c.09.09.231.09.321 0zM17.873 3.93a.225.225 0 0 0 0-.321.225.225 0 0 0-.322 0 .225.225 0 0 0 0 .322c.09.09.232.09.322 0zM17.358 4.31a.225.225 0 0 0 0-.321.225.225 0 0 0-.322 0 .225.225 0 0 0 0 .322c.09.083.232.083.322 0zM15.91 4.002l.18.399.232-.277s.02.006.026.013c.019.135.025.367.025.495 0 .161.129.29.29.29.16 0 .29-.129.29-.29a.3.3 0 0 0-.155-.257 1.99 1.99 0 0 1-.315-.296c.006-.013.013-.026.013-.039l.386.032-.155-.405-.29.245-.012-.007-.02-.418-.399.148.264.309s-.013.019-.013.032l-.347.026zM18.536 4.703c.09.135.122.206.128.316-.07-.026-.148-.097-.238-.213l.045.528c.065-.097.116-.161.187-.193-.02.34-.154.482-.27.508-.142.026-.251-.064-.27-.174-.026-.154.102-.25.238-.109.025-.315-.232-.315-.341-.18.135-.303.077-.509-.194-.676-.167.29-.096.476.116.695-.212-.11-.399.07-.212.31.038-.207.219-.155.257 0 .033.14-.096.314-.322.385-.328.097-.43-.11-.508-.283.07-.045.238-.032.425.09l-.155-.515a.532.532 0 0 1-.309.316c-.012-.148.097-.45.097-.45l-.624.25s.29.135.386.258a.533.533 0 0 1-.444-.007l.25.483c.052-.213.162-.341.245-.36.065.18.136.405-.167.56-.212.109-.431.077-.502-.052-.084-.142.013-.303.18-.18-.026-.296-.29-.296-.367-.071 0-.31-.077-.49-.399-.58-.077.31.026.49.335.618-.174-.019-.36.155-.122.367 0-.193.16-.219.25-.09a.222.222 0 0 1-.07.316c-.103.064-.296.058-.554-.174.078-.032.161-.02.27 0l-.334-.412a.65.65 0 0 1-.02.315c-.07-.083-.096-.154-.128-.309l-.257.226c.244.148.52.373.856.843.354-.22.99-.528 1.383-.689.393-.16 1.062-.386 1.474-.47-.084-.566-.045-.927.026-1.203l-.341.013v-.007zM19.25 7.702c-.315.251-.74.02-.927-.302.438-.18.94-.38 1.281-.592-.315.482-.103.695-.354.894zm-.07 3.296c-.406.173-.728-.18-.805-.425-.077-.245-.148-.45-.052-.54.174-.175.232-.31.13-.529-.123-.25-.387-.135-.677-.064.13-.238.142-.412-.038-.386-.22.026-.22.373-.341.335-.123-.039-.052-.245-.052-.354 0-.148.097-.2.245-.27l1.177-.451c.155-.058.258-.084.367.025.078.078.264.174.206.29-.058.116-.302-.135-.476 0-.148.11-.02.225.245.303-.258.148-.528.244-.445.514.078.232.206.29.457.29.136 0 .232.193.342.425.115.232.148.65-.29.837m-2.24-2.382c-.315.032-.309-.277-.869-.412.393-.077.895-.276 1.34-.444.083.367-.065.818-.47.856zm6.578 10.517c.09-.245-.354-.515-.406-.863-.051-.347-.006-.675-.405-1.145-.393-.457-1.75-1.905-2.156-2.369.103-.013.347-.064.598.174.148.135.438.412.708.676.36-.914.805-1.596 1.442-2.317.084-.09.16-.18.251-.264-.232.07-.592.122-.805.264-.012-.4.013-.721-.257-.972.103-.56.013-1.23-1.236-2.06.637.155 1.017.734 1.506.29-.437-.013-.45-.972-2.033-1.763.605-.013 1.074.965 1.776.411-.663-.077-.875-1.248-2.066-1.615.412.045.837.251 1.19-.232-.411.097-.656-.283-1.1-.315.167-.515.129-.83-.051-1.216-.31.019-.631.115-.856.302-.033-.283-.335-.296-.593-.277.013.123.071.296-.064.322-.212.039-.92.232-1.467.444a7.615 7.615 0 0 0-1.352.727c-.11.078-.206-.103-.27-.186-.193.16-.38.373-.238.592-.303.026-.638.11-.92.335 0 .354.289.695.727.888-.734.727-.071 1.403-.715 2.04.908.032.753-1.236 1.21-1.41-.045.889-.547 1.05-.547 2.009 0 .514.303 1.068.032 1.41.76-.213.56-1.893 1.037-2.402.083.29.032.567-.065.856-.264.786.032 1.86-.386 2.208.779-.077.869-1.32 1.506-1.776-.547 1.12-1.113 3.507-1.93 4.704-1.327 1.783-2.105 3.965-3.315 3.965-.534 0-.94-.328-.94-1.004 0-2.027 3.482-3.424 3.482-5.587 0-.959-.785-1.332-1.274-1.332-.335 0-.734.168-1.069.438a1.163 1.163 0 0 0-.412-.09c-1.229 0-.9 2.214-1.976 2.188.425.238 1.159-.225 1.59-.843-.18 1.435-2.246 1.055-2.085 2.774.29-1.352 3.578-1.152 3.578-3.199 0-.232-.116-.425-.283-.58.245-.16.476-.218.695-.218.393 0 .753.296.753.875 0 1.815-3.462 3.34-3.462 5.568 0 .373.109.688.29.933-.245.103-.496.058-.702-.187-.02.573.798.933 1.313.644.115.038.231.064.36.07-.154.425-.689.554-.965.535.85.669 2.33-.206 2.246-.966.676-.54 1.1-1.474 1.59-2.085a5.282 5.282 0 0 0-.078.418c-.495.901-.959 1.712-1.094 2.903-.11.998-.611 1.892-1.313 1.892-.154 0-.405-.2-.528-.103-.218.187-.012.386-.012.567 0 .283-.547.566-.547 1.435 0 .392.231.862.141 1.126.225-.116.521-.489.644-.972.238 1.152-.496 1.1.032 2.124.064-.34.405-.476.611-.34.206.14.11.237-.045.392-.154.154-.296.92.406.875-.129-.09-.142-.29.206-.36.482-.097.624.122 1.133.122.315 0 .405-.412.656-.412.25 0 .25.193.16.335.406-.11.477-.329.477-.554 0-.225-.187-.373-.045-.457.142-.09.611.013.425.393.244-.045.373-.22.373-.515 0-.296-.335-.47-.656-.412-.052-.187-.329-.283-.58-.283-.566 0-.482.45-.868.45-.625 0-1.23-.81-1.23-2.175 0-.734.785-.914 1.345-1.159.554-.238 1.532-.836 2.118-1.821.457-.766.47-1.609.412-2.607.785.451.875 1.101.875 1.57 0 .612-.315.857-.566.973-.213.096-.284.058-.303.18-.026.154.077.244.168.296.283.148.225.418.302.708.077.296.341.76.779 1.094.045-.18.032-.47.006-.85.605.296.123 1.506 1.294 1.506-.219-.122-.161-.437-.032-.482.122-.045.283.077.508.392.225.316.167.29.721.29.553 0 .302-.193.598-.193.297 0 .27.341.116.586.496-.148.644-.522.477-.908.43-.238.669.097.727.335.431-.431 0-.946-.335-.985.013-.16-.135-.328-.315-.341-.18-.013-.354-.026-.554-.013-.206.013-.315.303-.553.303-.734 0-2.188-1.333-2.188-1.905 0-.573 1.39-.927 1.39-1.815 0-1.165-1.146-1.564-2.111-2.311.34-.386 1.345-.476 1.918-.2.064-.321.276-.244.347-.804.206.496-.006.914.2 1.126.16-.238.579-.206.553-.81.129.38-.16.965.129 1.222.052-.315.238-.373.354-.373.116 0 .219.084.219.27 0 .464-.573.251-.573.773 0 .218.277.296.277.437 0 .142-.232.367-.509.18.09.2.277.38.515.38.258 0 .528-.206.63-.47.13.335.033.708-.212.753.252.13.857.007.786-.765.34.057.515.29.315.695.277-.071.534-.206.534-.502 0-.226-.25-.296-.135-.593M45.94 24.726c0-.4.329-.728.728-.728a.726.726 0 1 1-.727.727zm-.25 0a.978.978 0 1 0 1.955 0 .978.978 0 0 0-1.956 0zM42.484 26.496c-.276-.052-.476-.258-.437-.464a.332.332 0 0 1 .141-.206c.116-.077.27-.11.431-.077.252.045.445.232.445.412v.051c-.04.206-.297.329-.573.284m-.45-.87a.575.575 0 0 0-.245.361.563.563 0 0 0 .148.49.851.851 0 0 0 .489.263c.193.032.392 0 .553-.077a.582.582 0 0 0 .316-.406c.064-.34-.226-.675-.644-.753a.813.813 0 0 0-.618.123zM36.602 12.471c0-.128.077-.27.206-.373a.517.517 0 0 1 .373-.116c.058 0 .129.033.18.097.052.07.058.148.052.206a.484.484 0 0 1-.206.328c-.193.148-.444.155-.554.02a.281.281 0 0 1-.051-.162zm.051-.572c-.302.238-.392.63-.2.888.194.25.6.264.908.025a.737.737 0 0 0 .296-.495.531.531 0 0 0-.096-.386.524.524 0 0 0-.348-.193.794.794 0 0 0-.56.16zM41.274 25.112a.307.307 0 0 1-.218-.103.575.575 0 0 1-.148-.419c0-.167.064-.315.16-.411a.32.32 0 0 1 .226-.097c.206 0 .373.238.367.521 0 .161-.065.316-.161.412a.32.32 0 0 1-.226.097zm-.38-1.114a.849.849 0 0 0-.237.586v.02a.83.83 0 0 0 .218.579c.11.116.251.18.393.18.148 0 .29-.058.405-.168a.849.849 0 0 0 .238-.585c0-.2-.057-.386-.167-.534a.585.585 0 0 0-.45-.245.586.586 0 0 0-.406.167M36.3 17.054c-.258-.122-.387-.373-.297-.56a.303.303 0 0 1 .187-.154.583.583 0 0 1 .438.038c.148.07.257.193.308.322a.352.352 0 0 1 0 .245.32.32 0 0 1-.186.154.603.603 0 0 1-.444-.039m-.2-.965a.575.575 0 0 0-.328.283c-.148.316.039.715.418.895a.835.835 0 0 0 .631.051.574.574 0 0 0 .328-.283.569.569 0 0 0 .02-.438.852.852 0 0 0-.438-.463.866.866 0 0 0-.63-.052" fill="#fff"/>
    <path d="M43.199 20.549c-.161.225-.431.309-.612.18-.18-.129-.193-.412-.032-.637.161-.226.431-.31.611-.18.18.128.194.411.033.637zm-1.152 1.821c-.161.225-.431.309-.612.18-.18-.122-.193-.412-.032-.637.161-.225.431-.309.611-.18s.194.412.033.637zm-3.958-9.963c.135-.425.392-1.268.392-1.268l.444.174c-.128.051-.283.174-.425.302a.444.444 0 0 0 .4-.032l-.18.444c-.04-.07-.168-.231-.29-.257-.09.36.135.495.296.58.27.134.45.16.521.038.084-.155-.09-.367-.322-.27-.026-.232.11-.354.258-.354.122 0 .218.109.25.263-.012-.38.155-.675.503-.778.128.366.025.617-.251.881.148-.058.309-.051.38.052.083.128.05.302-.155.418-.052-.244-.328-.264-.412-.11-.077.155.045.303.29.445.29.16.52.064.675-.187-.096-.032-.264-.013-.418.084l.296-.554a.58.58 0 0 0 .187.329c.045-.123.11-.341.02-.541l.636.367c-.212.02-.373.187-.457.283a.602.602 0 0 0 .374 0l-.335.534c.006-.18-.058-.335-.135-.399-.142.258-.11.509.173.676.245.148.438.18.528.032.097-.148-.064-.38-.296-.302-.006-.232.129-.348.283-.341.123.006.213.148.238.302.09-.373.252-.586.638-.663.077.354-.09.65-.425.83.148-.051.296-.019.354.09.077.136.032.31-.18.406-.033-.245-.31-.29-.393-.142-.07.13.039.27.29.432.154.103.38.225.65-.033-.09-.096-.29-.122-.373-.122l.295-.373a.489.489 0 0 0 .174.367c.045-.187.071-.38.052-.522l.373.296s-.599.644-.901.972l-4.055-2.342.033-.007zm4.788 5.432c0-.064.02-.154.09-.225a.324.324 0 0 1 .232-.084c.135 0 .283.077.399.193.11.123.174.27.174.412a.28.28 0 0 1-.097.219.319.319 0 0 1-.225.084.588.588 0 0 1-.4-.193.584.584 0 0 1-.167-.412m1.751 8.064a.6.6 0 0 1 .264-.36.567.567 0 0 1 .431-.097.331.331 0 0 1 .206.135.3.3 0 0 1 .039.238.588.588 0 0 1-.258.36c-.238.155-.521.142-.637-.031a.3.3 0 0 1-.039-.238m-8.347-12.145a.488.488 0 0 1-.155.347.238.238 0 0 1-.186.071c-.161-.013-.29-.2-.29-.418v-.033a.494.494 0 0 1 .148-.34.252.252 0 0 1 .193-.071c.084 0 .142.051.18.096a.497.497 0 0 1 .11.354m2.58-5.31c.136-.264 0-.656.477-.656.232 0 .444.232.727.328-.463.039-.875.142-1.203.335m7.51 6.629c.316.875.953 1.19 1.436.965-1.081-.128-.206-1.976-1.596-1.976a.864.864 0 0 0-.226.026c-.238-.25-.508-.354-.9-.354-.593 0-1.603.567-1.603 1.738 0 2.523 2.928 2.748 2.928 4.975 0 .657-.489 1.055-1.043 1.055-.489 0-.888-.553-1.3-1.422-.2-.412-.624-.978-1.074-1.564a.804.804 0 0 0 .437.155.593.593 0 0 0 .406-.148.57.57 0 0 0 .174-.393v-.026c0-.2-.084-.405-.239-.566a.842.842 0 0 0-.572-.27.593.593 0 0 0-.406.148.571.571 0 0 0-.174.392v.02a.7.7 0 0 0 .045.257c-.63-.824-1.216-1.635-1.216-2.079 0-.393.27-.734.605-1.146l.116.065.09-.097c.116-.128.36-.399.869-.94l.032-.032.122-.128-.315-.251c.084-.193.154-.393.212-.618.097.405.303.663.592.58-.193-.42.194-.98-.057-2.009.238.393.585.605.83.534-.65-.572.193-1.377-.657-2.626.277.097.457.039.58-.096-.773-.11-.419-1.094-1.777-1.442.335-.058.534-.257.483-.431-.354.257-.67-.483-1.847-.463-.071-.438-.477-.901-.94-1.127.084.341 0 .65-.084.901l-3.823-3.752c-.11-.103-.173-.129-.206-.09-.032.039-.025.11.045.187l3.283 4.119c-.245.083-.49.186-.747.283a.433.433 0 0 0-.283.425c-.605.302-1.14.675-1.41.92-.205.187-.36.232-.186.644.07.154-.142.547.335.264.309-.187 1.017-.58 1.126-.335.058.129-.296.296-.534.386-.238.09-.496.277-.464.373.039.09.226-.006.239.09.012.11.09.206.186.206.097 0 .219-.2.296-.135.077.065-.038.515-.116.63.374-.044.612-.398.618-.675.007-.277.084-.347.142-.38.058-.038.122.296.045.496.2-.045.399-.302.373-.779.097-.077.2-.135.277-.135.122 0 .373.348.727.348.65 0 1.01-.528 1.05-.773.031-.2.012-.392-.09-.54.23.186.308.482.308.701 0 .92-1.628 1.352-2.298 1.989a.368.368 0 0 0-.07.07l-.766-.295-.052.167s-.013.039-.045.148c-.077.264-.244.804-.347 1.12l-.039.129.07.038c-.456.605-.817 1.275-.9 1.97a6.982 6.982 0 0 0-.56-.509.775.775 0 0 0 .038-.212.752.752 0 0 0-.173-.54.494.494 0 0 0-.354-.175.517.517 0 0 0-.438.206c-.026-.019-.052-.045-.084-.064-.25-.193-.566-.425-.753-.63-.077-.09-.16-.136-.334-.136-.065 0-.226-.006-.342-.006-.115 0-.18.09-.308.2-.065.05-.238.192-.432.34.097.097.187.193.277.296.052.058.097.116.148.174.052-.038.097-.077.135-.103a.445.445 0 0 1 .284-.083c.096 0 .238.07.334.218.071.103.689.914 1.197 1.48-.058.02-.11.04-.16.059-.22.09-.715.07-.934.058-.219-.02-.264-.071-.412.16-.058.09-.129.194-.206.284-.07.09-.128.193.026.45.225.38.785 1.384.972 1.84.187.458.405.529.76.67.36.148.965.496 1.035.573l.026-.348c-.103-.103-.444-.231-.573-.276-.128-.045-.16-.103-.006-.103s.58.154.882.276c-.09-.34-.412-.714-.612-.92-.257-.07-.521-.07-.624.007.013.07-.039.16-.148.16-.11 0-.167-.083-.135-.18.032-.103.187-.135.154-.328-.032-.193-.276-.225-.43-.245-.22-.315-.47-.778-.587-.965-.115-.187-.045-.29.033-.354.186-.154.572.084 1.351.129.27.019.612.032.96.051.102.901.463 1.757 1.718 2.073.611.148 1.248.598 1.46 1.19-2.51-.045-2.902.934-2.902 1.86 0 1.05.882.991.882 1.777 0 .688-2.111.971-2.748 1.062-.541.077-.85.2-1.108.457-.257.257-.52.508-.99.978 0 0 .199.045.398.032l.354-.463c.103-.155.18-.284.251-.27.071.012.026.128-.058.295l-.296.496c1.236.084 1.32-.373 1.32-.566 0-.194-.31-.316-.129-.438.174-.116.328-.039.47.129.141.167.186.309.528.173 0 0 2.696-1.12 3.037-1.274.31-.135.22-.27.033-.425-.2-.167-.232-.437-.232-.72 0-.818.489-1.069 1.37-1.056-.018.135-.025.27-.025.393 0 1.274 1.924 2.523 2.446 2.523.231 0 .547-.174.566.592.013.566.129.965.026 1.615-.103.65-.29.753-.682 1.03-.393.277-.76 1.139-.927 1.32.174.115.36.128.508-.29.123-.348.258-.593.412-.676-.154.386-.264.946-.334 1.113.495.09 1.293-.36 1.293-.708 0-.347-.277-.322-.277-.547 0-.103.123-.219.277-.219.2 0 .348.161.36.232.22-.116.355-.335.348-.843 0-.2-.013-.405-.02-.618.014.026.027.058.046.077a.573.573 0 0 0 .444.251.885.885 0 0 0 .54-.148.828.828 0 0 0 .367-.515.556.556 0 0 0-.077-.425.55.55 0 0 0-.36-.238.82.82 0 0 0-.624.136.807.807 0 0 0-.355.476c-.038-.695-.09-1.345-.07-1.61.026-.392.045-.566-.09-.623-.13-.058-.277.16-.464.16-.186 0-.753-.52-.753-1.074s.599-1.262.567-2.015c-.013-.238.135-.36.231-.141.116.257.284.605.54.888-.16.946.89 1.873 1.745 1.19-.425.065-.714-.315-.901-.695.07.013.148.02.232.02h.128c.303.373 1.256.34 1.507-.586-.168.193-.515.341-.76.309.36-.277.547-.74.547-1.23 0-2.406-2.915-2.683-2.915-4.871 0-.811.714-1.333 1.203-1.333.187 0 .335.058.45.142-.186.193-.289.483-.27.837.078 1.73 2.903 1.64 2.935 2.471.316-1.255-1.79-.862-1.866-2.555" fill="#fff"/>
</svg>
